<?xml version="1.0" encoding="utf-8"?>
<!DOCTYPE svg PUBLIC "-//W3C//DTD SVG 1.1//EN" "http://www.w3.org/Graphics/SVG/1.1/DTD/svg11.dtd">
<svg version="1.1" id="Layer_1" xmlns="http://www.w3.org/2000/svg" xmlns:xlink="http://www.w3.org/1999/xlink" x="0px" y="0px"
	 width="29.25px" height="29.875px" viewBox="0 0 29.25 29.875" enable-background="new 0 0 29.25 29.875" xml:space="preserve">
<g>
	<path fill="#463320" d="M8.504,3.362c-1.029-0.74-3.272-2.069-4.887-0.994C2.645,3.017,2.645,4.703,3.812,4.768
		C4.852,4.825,5.635,3.499,6.985,4.4C1.776,8.488,0.01,15.503,2.709,19.549c2.853,4.279,5.375,3.641,5.375,3.641l8.861-5.907
		l8.863-5.907c0,0,1.563-2.082-1.291-6.359C21.758,0.875,14.346-0.143,8.504,3.362"/>
	<path fill="#8A6743" d="M13.168,1.551C11.583,1.878,9.993,2.47,8.504,3.364c-1.03-0.74-3.273-2.069-4.887-0.994
		C2.644,3.019,2.644,4.705,3.811,4.77c1.04,0.058,1.822-1.269,3.173-0.367c-3.06,2.399-4.92,5.812-5.396,9.038
		C4.292,8.628,8.392,4.68,13.168,1.551"/>
	<path fill="#6A4C30" d="M13.168,1.551C8.392,4.681,4.292,8.628,1.586,13.44c-0.334,2.266,0.009,4.44,1.121,6.11
		c0.731,1.099,1.44,1.868,2.092,2.411C3.972,13.322,9.657,4.471,18.072,1.386C16.52,1.157,14.846,1.206,13.168,1.551"/>
	<path fill="#6A4C30" d="M23.096,7.287c-1.814-0.446-6.979-1.31-11.622,1.785c-4.644,3.095-5.833,8.193-6.119,10.041
		c-0.067,0.438,0.043,0.881,0.313,1.234c1.289,1.688,5.502,6.839,9.714,7.892c3.656,0.915,5.844,0.161,7.068-0.521
		c0.465,0.396,1.094,0.484,1.563,0.172c0.471-0.313,0.629-0.931,0.443-1.51c1.102-0.869,2.639-2.599,3.201-6.323
		c0.646-4.296-2.482-10.165-3.547-12.006C23.893,7.667,23.527,7.396,23.096,7.287"/>
	<path fill="#AD7F52" d="M16.719,19.89c1.186-4.215-1.828-7.605-4.738-11.125c-0.169,0.102-0.339,0.194-0.507,0.309
		c-2.45,1.634-3.933,3.82-4.834,5.796C10.555,18.7,14.531,26.451,16.719,19.89"/>
	<path fill="#8A6743" d="M15.066,7.406c-1.021,0.298-2.062,0.741-3.085,1.357c2.91,3.52,5.923,6.91,4.738,11.125
		c-2.188,6.563-6.164-1.188-10.079-5.021c-0.353,0.772-0.618,1.513-0.813,2.174c4.547,6.353,10.697,12.911,14.878,5.125
		C23.676,16.969,18.979,12.353,15.066,7.406"/>
</g>
</svg>
